HIERARCHY
ROOT Hips
{
	OFFSET 0.00000 0.00000 0.00000
	CHANNELS 6 Xposition Yposition Zposition Zrotation Yrotation Xrotation 
	JOINT LHipJoint
	{
		OFFSET 0 0 0
		CHANNELS 3 Zrotation Yrotation Xrotation
		JOINT LeftHip
		{
			OFFSET 1.62067 -1.77917 0.70989
			CHANNELS 3 Zrotation Yrotation Xrotation
			JOINT LeftKnee
			{
				OFFSET 2.34532 -6.44371 0.00000
				CHANNELS 3 Zrotation Yrotation Xrotation
				JOINT LeftAnkle
				{
					OFFSET 2.74224 -7.53425 0.00000
					CHANNELS 3 Zrotation Yrotation Xrotation
					JOINT LeftToe
					{
						OFFSET 0.17032 -0.46794 2.08086
						CHANNELS 3 Zrotation Yrotation Xrotation
						End Site
						{
							OFFSET 0.00000 -0.00000 1.07476
						}
					}
				}
			}
		}
	}
	JOINT RHipJoint
	{
		OFFSET 0 0 0
		CHANNELS 3 Zrotation Yrotation Xrotation
		JOINT RightHip
		{
			OFFSET -1.55811 -1.77917 0.70989
			CHANNELS 3 Zrotation Yrotation Xrotation
			JOINT RightKnee
			{
				OFFSET -2.33243 -6.40830 0.00000
				CHANNELS 3 Zrotation Yrotation Xrotation
				JOINT RightAnkle
				{
					OFFSET -2.78798 -7.65993 0.00000
					CHANNELS 3 Zrotation Yrotation Xrotation
					JOINT RightToe
					{
						OFFSET -0.22707 -0.62388 2.04059
						CHANNELS 3 Zrotation Yrotation Xrotation
						End Site
						{
							OFFSET -0.00000 -0.00000 1.07030
						}
					}
				}
			}
		}
	}
	JOINT lowerback
	{
		OFFSET 0 0 0
		CHANNELS 3 Zrotation Yrotation Xrotation
		JOINT Chest
		{
			OFFSET 0.02203 1.91565 0.07161
			CHANNELS 3 Zrotation Yrotation Xrotation
			JOINT Chest2
			{
				OFFSET 0.01740 1.90525 0.11636
				CHANNELS 3 Zrotation Yrotation Xrotation
				JOINT lowerneck
				{
					OFFSET 0 0 0
					CHANNELS 3 Zrotation Yrotation Xrotation
					JOINT Neck
					{
						OFFSET -0.10841 1.83566 0.05067
						CHANNELS 3 Zrotation Yrotation Xrotation
						JOINT Head
						{
							OFFSET 0.06601 1.74760 -0.50505
							CHANNELS 3 Zrotation Yrotation Xrotation
							End Site
							{
								OFFSET 0.03102 1.85215 -0.17697
							}
						}
					}
				}
				JOINT LeftCollar
				{
					OFFSET 0 0 0
					CHANNELS 3 Zrotation Yrotation Xrotation
					JOINT LeftShoulder
					{
						OFFSET 2.87059 1.35470 0.16111
CHANNELS 3 Zrotation Xrotation Yrotation
						JOINT LeftElbow
						{
OFFSET 0 -5.435920 0.000000
CHANNELS 3 Zrotation Xrotation Yrotation
							JOINT LeftWrist
							{
OFFSET 0 -3.254600 0.000000
CHANNELS 3 Zrotation Xrotation Yrotation
								JOINT lhand
								{
									OFFSET 0 0 0
CHANNELS 3 Zrotation Xrotation Yrotation
									JOINT LFingers
									{
OFFSET 0 -0.498240 0.000000
CHANNELS 3 Zrotation Xrotation Yrotation
										End Site
										{
OFFSET 0 -0.401700 0.000000
										}
									}
								}
								JOINT LThumb
								{
OFFSET 0 0.000000 0.000000
CHANNELS 3 Zrotation Xrotation Yrotation
									End Site
									{
OFFSET 0 -0.407830 0.407830
									}
								}
							}
						}
					}
				}
				JOINT RightCollar
				{
					OFFSET 0 0 0
					CHANNELS 3 Zrotation Yrotation Xrotation
					JOINT RightShoulder
					{
						OFFSET -2.86643 1.23488 0.45957
CHANNELS 3 Zrotation Xrotation Yrotation
						JOINT RightElbow
						{
OFFSET 0 -5.338300 0.000000
CHANNELS 3 Zrotation Xrotation Yrotation
							JOINT RightWrist
							{
OFFSET 0 -3.231480 0.000000
CHANNELS 3 Zrotation Xrotation Yrotation
								JOINT rhand
								{
									OFFSET 0 0 0
CHANNELS 3 Zrotation Xrotation Yrotation
									JOINT RFingers
									{
OFFSET 0 -0.463640 0.000000
CHANNELS 3 Zrotation Xrotation Yrotation
										End Site
										{
OFFSET 0 -0.373800 0.000000
										}
									}
								}
								JOINT RThumb
								{
OFFSET 0 0.000000 0.000000
CHANNELS 3 Zrotation Xrotation Yrotation
									End Site
									{
OFFSET 0 -0.379510 0.379510
									}
								}
							}
						}
					}
				}
			}
		}
	}
}
MOTION
Frames: 6
Frame Time: 0.008333333333333333
-0.712900 17.537900 0.921000 -3.969400 -5.927400 14.455400 0.000000 0.000000 0.000000 -14.328700 -16.487500 -16.657900 2.007100 8.880800 25.423200 0.471500 11.065400 -21.312700 0.023100 -0.982000 -2.699200 0.000000 0.000000 0.000000 19.968900 20.172000 -17.027900 -1.914700 -8.686100 24.818300 -0.372000 -6.726100 -15.919700 -0.049900 1.441700 -3.965100 2.739300 -0.579400 -12.490200 1.554800 -1.139900 -5.175800 -0.081700 -0.593700 1.557700 -11.814800 -9.192800 -10.861000 5.921300 -12.281700 26.399800 2.426900 -6.136300 11.513700 -0.000000 0.000000 0.000000 3.667400 7.875800 -38.213300 15.577200 -24.944100 3.465700 35.554700 -23.953200 22.046800 0.000000 0.000000 0.000000 -7.125000 0.000000 0.000000 4.134300 3.576000 3.878700 -0.000000 0.000000 0.000000 -2.076900 7.293700 38.476900 -17.284400 -27.231200 -4.216700 -31.293000 31.372000 47.502700 0.000000 0.000000 0.000000 7.125000 0.000000 -0.000000 27.272000 81.002500 -22.864200
-0.717729 17.538173 0.918665 -3.929079 -5.884683 14.545586 0.000000 0.000000 0.000000 -14.289766 -16.503278 -16.795512 1.997750 8.861404 25.362626 0.438544 11.123105 -21.045728 0.019658 -0.904465 -2.486029 0.000000 0.000000 0.000000 19.907067 20.339195 -17.168439 -1.931708 -8.722356 24.930599 -0.360534 -6.908792 -15.938379 -0.043029 1.338690 -3.681293 2.599093 -0.601845 -12.321549 1.645818 -1.146174 -5.299296 0.094313 -0.597432 1.342516 -11.335554 -8.715916 -11.462738 5.435039 -11.520211 26.912344 2.269462 -5.786477 11.682983 0.000000 0.000000 0.000000 3.608275 8.089783 -38.366330 15.652044 -25.046542 3.497295 35.905305 -24.385084 22.125682 0.000000 0.000000 0.000000 -7.125000 0.000000 0.000000 4.333314 3.390932 4.081313 0.000000 0.000000 0.000000 -2.178923 7.675248 38.459079 -17.330610 -27.291546 -4.237831 -30.902498 31.272614 46.988737 0.000000 0.000000 0.000000 7.125000 0.000000 0.000000 25.749903 80.435695 -21.295998
-0.718754 17.538208 0.923621 -3.895927 -6.053655 14.652515 0.000000 0.000000 0.000000 -14.336280 -16.453923 -16.860958 1.998542 8.863079 25.368116 0.455687 11.156689 -21.252133 0.022396 -0.966588 -2.657035 0.000000 0.000000 0.000000 19.796676 20.631780 -17.241926 -1.935313 -8.730125 24.954583 -0.352054 -7.009750 -15.921545 -0.038121 1.259843 -3.463966 2.532737 -0.518682 -12.367303 1.682678 -1.031653 -5.296610 0.184235 -0.538814 1.373931 -10.794391 -7.932877 -12.344728 5.391981 -10.431219 27.457703 2.309472 -5.226735 11.921700 0.000000 0.000000 0.000000 3.539696 8.071224 -38.338834 15.795439 -25.242447 3.558224 35.526524 -23.578269 21.604754 0.000000 0.000000 0.000000 -7.125000 0.000000 0.000000 4.196997 4.091746 3.897566 0.000000 0.000000 0.000000 -2.242210 7.709139 38.461058 -17.622627 -27.671267 -4.372543 -31.895522 31.890853 46.459142 0.000000 0.000000 0.000000 7.125000 0.000000 0.000000 21.994783 80.449662 -18.149133
-0.715237 17.535737 0.930788 -4.005408 -6.242005 14.672755 0.000000 0.000000 0.000000 -14.255750 -16.605819 -16.767009 1.996088 8.857901 25.351822 0.430699 11.466850 -21.335545 0.016087 -0.818345 -2.249105 0.000000 0.000000 0.000000 19.874121 20.837766 -17.141752 -1.927044 -8.712431 24.899868 -0.353551 -7.028986 -15.959038 -0.042944 1.337055 -3.676702 2.702342 -0.381488 -12.352899 1.711292 -0.868013 -5.360634 0.140943 -0.460378 1.299001 -10.390536 -7.212540 -12.250600 5.424168 -9.497867 27.421649 2.410482 -4.765202 11.771174 0.000000 0.000000 0.000000 3.523559 8.132126 -38.737257 15.826856 -25.285294 3.571694 36.187749 -24.558006 22.409296 0.000000 0.000000 0.000000 -7.125000 0.000000 0.000000 4.451777 2.987172 4.226516 0.000000 0.000000 0.000000 -2.304124 7.831377 38.461430 -17.568389 -27.601040 -4.347451 -30.766755 31.001406 46.408910 0.000000 0.000000 0.000000 7.125000 0.000000 0.000000 23.717518 79.926746 -19.347840
-0.719025 17.538225 0.934175 -3.866326 -6.228270 14.760734 0.000000 0.000000 0.000000 -14.369882 -16.763804 -16.783015 1.984409 8.833534 25.276036 0.408345 11.603453 -21.261547 0.023599 -0.992481 -2.728070 0.000000 0.000000 0.000000 19.710597 20.806597 -17.290662 -1.934933 -8.729149 24.951623 -0.348990 -7.107019 -15.972251 -0.048683 1.423400 -3.914641 2.567509 -0.313224 -12.424472 1.633175 -0.763650 -5.334911 0.148479 -0.406229 1.367420 -9.419638 -6.472448 -13.284465 4.928211 -8.450194 28.153568 2.202763 -4.232865 12.088082 0.000000 0.000000 0.000000 3.656679 7.807003 -39.424515 15.743990 -25.172275 3.536411 36.911407 -26.211069 23.339036 0.000000 0.000000 0.000000 -7.125000 0.000000 0.000000 4.708498 1.710167 4.581814 0.000000 0.000000 0.000000 -2.237043 7.702870 38.468583 -17.480616 -27.487009 -4.306887 -30.867226 31.160671 46.383477 0.000000 0.000000 0.000000 7.125000 0.000000 0.000000 23.456442 79.949389 -19.141471
-0.720902 17.539137 0.934691 -3.717058 -6.069085 14.744313 0.000000 0.000000 0.000000 -14.495766 -16.876510 -16.714247 1.967940 8.798943 25.168435 0.419760 11.531634 -21.296600 0.013198 -0.741829 -2.038761 0.000000 0.000000 0.000000 19.568112 20.760600 -17.341975 -1.949962 -8.761082 25.050681 -0.344190 -7.235596 -16.031031 -0.046196 1.385370 -3.809889 2.445713 -0.298559 -12.262695 1.606640 -0.722973 -5.342489 0.196083 -0.385241 1.274219 -8.823499 -5.804962 -13.955548 4.670149 -7.508570 28.535262 2.140734 -3.767269 12.251925 0.000000 0.000000 0.000000 3.652508 7.585874 -39.464208 15.987118 -25.503197 3.640478 36.367265 -24.454908 22.556172 0.000000 0.000000 0.000000 -7.125000 0.000000 0.000000 4.532008 2.768187 4.321157 0.000000 0.000000 0.000000 -2.284361 7.544983 38.516799 -17.518075 -27.535654 -4.324125 -30.770331 31.305138 47.283025 0.000000 0.000000 0.000000 7.125000 0.000000 0.000000 27.149594 80.607545 -22.556081
